<svg xmlns="http://www.w3.org/2000/svg" xmlns:xlink="http://www.w3.org/1999/xlink" xmlns:lucid="lucid" width="1061" height="763"><g transform="translate(0 -560)" lucid:page-tab-id="0_0"><path d="M0 0h1870.87v1322.83H0z" fill="#fff"/><path d="M24.96 603.38A1.85 1.85 0 0 1 26 600h208a6 6 0 0 1 6 6v48a6 6 0 0 1-6 6H26a1.85 1.85 0 0 1-1.04-3.38l34.08-23.24a4.1 4.1 0 0 0 0-6.76z" stroke="#5e5e5e" stroke-width="3" fill="#fff"/><use xlink:href="#a" transform="matrix(1,0,0,1,64,608) translate(21.48148148148148 17.77777777777778)"/><use xlink:href="#b" transform="matrix(1,0,0,1,64,608) translate(74.44444444444444 17.77777777777778)"/><use xlink:href="#c" transform="matrix(1,0,0,1,64,608) translate(5.555555555555571 44.44444444444444)"/><use xlink:href="#d" transform="matrix(1,0,0,1,64,608) translate(97.71604938271605 44.44444444444444)"/><path d="M400 606a6 6 0 0 1 6-6h148a6 6 0 0 1 6 6v48a6 6 0 0 1-6 6H406a6 6 0 0 1-6-6z" stroke="#5e5e5e" stroke-width="3" fill="#fff"/><use xlink:href="#e" transform="matrix(1,0,0,1,404.99999999999994,605) translate(18.30246913580247 30.27777777777778)"/><path d="M242.5 630h137.53" stroke="#5e5e5e" stroke-width="2" fill="none"/><path d="M242.53 631h-1.06v-2h1.06z" stroke="#5e5e5e" stroke-width=".05" fill="#5e5e5e"/><path d="M395.3 630l-14.27 4.64v-9.28z" stroke="#5e5e5e" stroke-width="2" fill="#5e5e5e"/><path d="M300 616a6 6 0 0 1 6-6h8a6 6 0 0 1 6 6v8a6 6 0 0 1-6 6h-8a6 6 0 0 1-6-6z" stroke="#6db1ff" stroke-width="3" fill="#fff"/><path d="M320 606a6 6 0 0 1 6-6h68a6 6 0 0 1 6 6v28a6 6 0 0 1-6 6h-68a6 6 0 0 1-6-6z" stroke="#000" stroke-opacity="0" stroke-width="3" fill="#fff" fill-opacity="0"/><use xlink:href="#f" transform="matrix(1,0,0,1,325,605) translate(-1.419753086419746 19.444444444444443)"/><path d="M465.76 704.24a6 6 0 0 1 8.48 0l21.52 21.52a6 6 0 0 1 0 8.48l-21.52 21.52a6 6 0 0 1-8.48 0l-21.52-21.52a6 6 0 0 1 0-8.48z" stroke="#5e5e5e" stroke-width="3" fill="#fff"/><path d="M888.53 1100h-2l-.07-356.67h2zm-388.5-369v-2H759.6v2z" stroke="#5e5e5e" stroke-width=".05" fill="#5e5e5e"/><path d="M500.04 731h-1.1l.08-1-.08-1h1.1z" fill="#5e5e5e"/><path d="M500.07 731.02h-1.16l.1-1.02-.1-1.02h1.17zm-1.1-2l.07.98-.07.98h1.05V729z" stroke="#5e5e5e" stroke-width=".05" fill="#5e5e5e"/><path d="M887.53 1115.27L882.9 1101h9.26z" fill="#5e5e5e"/><path d="M887.53 1118.5l-6-18.5h12zm-3.26-16.5l3.26 10.04 3.26-10.03z" stroke="#5e5e5e" stroke-width=".05" fill="#5e5e5e"/><use xlink:href="#g" transform="matrix(1,0,0,1,759.5975889312626,716.6666666666666) translate(0 17.77777777777778)"/><use xlink:href="#h" transform="matrix(1,0,0,1,759.5975889312626,716.6666666666666) translate(17.22222222222222 17.77777777777778)"/><path d="M180 786a6 6 0 0 1 6-6h188a6 6 0 0 1 6 6v48a6 6 0 0 1-6 6H186a6 6 0 0 1-6-6z" stroke="#5e5e5e" stroke-width="3" fill="#fff"/><use xlink:href="#i" transform="matrix(1,0,0,1,185,785) translate(8.70370370370371 30.27777777777778)"/><path d="M480 662.46v22.23h-.02v4.73" stroke="#5e5e5e" stroke-width="2" fill="none"/><path d="M481 662.5h-2v-1.04h2z" stroke="#5e5e5e" stroke-width=".05" fill="#5e5e5e"/><path d="M479.98 704.7l-4.64-14.27h9.27z" stroke="#5e5e5e" stroke-width="2" fill="#5e5e5e"/><path d="M281 760.04h-2l.05-16.7h2zM439.98 731H413.8v-2h26.18z" stroke="#5e5e5e" stroke-width=".05" fill="#5e5e5e"/><path d="M440.98 730l.08 1h-1.1v-2h1.1z" fill="#5e5e5e"/><path d="M441 730l.1 1.02h-1.17V729h1.16zm-1.02-.98V731h1.05l-.07-.98.07-.98z" stroke="#5e5e5e" stroke-width=".05" fill="#5e5e5e"/><path d="M280 775.3l-4.64-14.27h9.28z" fill="#5e5e5e"/><path d="M280 778.54l-6-18.5h12zm-3.26-16.5l3.26 10.02 3.26-10.03z" stroke="#5e5e5e" stroke-width=".05" fill="#5e5e5e"/><use xlink:href="#g" transform="matrix(1,0,0,1,149.29864750503896,716.6666666666666) translate(0 17.77777777777778)"/><use xlink:href="#j" transform="matrix(1,0,0,1,149.29864750503896,716.6666666666666) translate(17.22222222222222 17.77777777777778)"/><path d="M275.76 904.24a6 6 0 0 1 8.48 0l21.52 21.52a6 6 0 0 1 0 8.48l-21.52 21.52a6 6 0 0 1-8.48 0l-21.52-21.52a6 6 0 0 1 0-8.48zM460 906a6 6 0 0 1 6-6h188a6 6 0 0 1 6 6v48a6 6 0 0 1-6 6H466a6 6 0 0 1-6-6z" stroke="#5e5e5e" stroke-width="3" fill="#fff"/><use xlink:href="#k" transform="matrix(1,0,0,1,465,905) translate(32.716049382716044 30.27777777777778)"/><path d="M460 1006a6 6 0 0 1 6-6h188a6 6 0 0 1 6 6v48a6 6 0 0 1-6 6H466a6 6 0 0 1-6-6z" stroke="#5e5e5e" stroke-width="3" fill="#fff"/><use xlink:href="#l" transform="matrix(1,0,0,1,465,1005) translate(24.75308641975309 30.27777777777778)"/><path d="M460 1246a6 6 0 0 1 6-6h188a6 6 0 0 1 6 6v48a6 6 0 0 1-6 6H466a6 6 0 0 1-6-6z" stroke="#5e5e5e" stroke-width="3" fill="#fff"/><use xlink:href="#m" transform="matrix(1,0,0,1,465,1245) translate(24.75308641975309 30.27777777777778)"/><path d="M280 842.46v40.02" stroke="#5e5e5e" stroke-width="2" fill="none"/><path d="M281 842.5h-2v-1.04h2z" stroke="#5e5e5e" stroke-width=".05" fill="#5e5e5e"/><path d="M280 897.74l-4.64-14.26h9.28z" stroke="#5e5e5e" stroke-width="2" fill="#5e5e5e"/><path d="M310.02 930h130" stroke="#5e5e5e" stroke-width="2" fill="none"/><path d="M310.04 931h-1.1l.08-1-.08-1h1.1z" stroke="#5e5e5e" stroke-width=".05" fill="#5e5e5e"/><path d="M455.3 930l-14.27 4.64v-9.28z" stroke="#5e5e5e" stroke-width="2" fill="#5e5e5e"/><path d="M280 960.02V1024a6 6 0 0 0 6 6h154.03" stroke="#5e5e5e" stroke-width="2" fill="none"/><path d="M280 959.02l1-.08v1.1h-2v-1.1z" stroke="#5e5e5e" stroke-width=".05" fill="#5e5e5e"/><path d="M455.3 1030l-14.27 4.64v-9.28z" stroke="#5e5e5e" stroke-width="2" fill="#5e5e5e"/><path d="M249.98 930h-33a6 6 0 0 0-6 6v328a6 6 0 0 0 6 6h223.05" stroke="#5e5e5e" stroke-width="2" fill="none"/><path d="M250.98 930l.08 1h-1.1v-2h1.1z" stroke="#5e5e5e" stroke-width=".05" fill="#5e5e5e"/><path d="M455.3 1270l-14.27 4.64v-9.28z" stroke="#5e5e5e" stroke-width="2" fill="#5e5e5e"/><path d="M560 997.54v-17.57" stroke="#5e5e5e" stroke-width="2" fill="none"/><path d="M561 998.54h-2v-1.03h2z" stroke="#5e5e5e" stroke-width=".05" fill="#5e5e5e"/><path d="M560 964.7l4.64 14.27h-9.28z" stroke="#5e5e5e" stroke-width="2" fill="#5e5e5e"/><path d="M482.62 1237.57V1100.1a.07.07 0 0 0-.08-.07.07.07 0 0 1-.07-.07V980" stroke="#5e5e5e" stroke-width="2" fill="none"/><path d="M483.62 1238.57h-2v-1.03h2z" stroke="#5e5e5e" stroke-width=".05" fill="#5e5e5e"/><path d="M482.47 964.73L487.1 979h-9.27z" stroke="#5e5e5e" stroke-width="2" fill="#5e5e5e"/><path d="M470 876a6 6 0 0 1 6-6h8a6 6 0 0 1 6 6v8a6 6 0 0 1-6 6h-8a6 6 0 0 1-6-6z" stroke="#6db1ff" stroke-width="3" fill="#fff"/><path d="M460 866a6 6 0 0 1 6-6h148a6 6 0 0 1 6 6v28a6 6 0 0 1-6 6H466a6 6 0 0 1-6-6z" stroke="#000" stroke-opacity="0" stroke-width="3" fill="#fff" fill-opacity="0"/><use xlink:href="#f" transform="matrix(1,0,0,1,465,865) translate(38.580246913580254 19.65277777777778)"/><path d="M300 766a6 6 0 0 1 6-6h8a6 6 0 0 1 6 6v8a6 6 0 0 1-6 6h-8a6 6 0 0 1-6-6z" stroke="#6db1ff" stroke-width="3" fill="#fff"/><path d="M320 756a6 6 0 0 1 6-6h68a6 6 0 0 1 6 6v28a6 6 0 0 1-6 6h-68a6 6 0 0 1-6-6z" stroke="#000" stroke-opacity="0" stroke-width="3" fill="#fff" fill-opacity="0"/><use xlink:href="#f" transform="matrix(1,0,0,1,325,755) translate(-1.419753086419746 19.444444444444443)"/><path d="M720 1126a6 6 0 0 1 6-6h188a6 6 0 0 1 6 6v48a6 6 0 0 1-6 6H726a6 6 0 0 1-6-6z" stroke="#5e5e5e" stroke-width="3" fill="#fff"/><use xlink:href="#n" transform="matrix(1,0,0,1,725,1125) translate(22.870370370370367 30.27777777777778)"/><path d="M600.36 1062.45V1144a6 6 0 0 0 6 6h93.67" stroke="#5e5e5e" stroke-width="2" fill="none"/><path d="M601.36 1062.47h-2v-1.02h2z" stroke="#5e5e5e" stroke-width=".05" fill="#5e5e5e"/><path d="M715.3 1150l-14.27 4.64v-9.28z" stroke="#5e5e5e" stroke-width="2" fill="#5e5e5e"/><path d="M599.33 1237.52V1156a6 6 0 0 1 6-6h94.7" stroke="#5e5e5e" stroke-width="2" fill="none"/><path d="M600.33 1238.52h-2v-1.02h2z" stroke="#5e5e5e" stroke-width=".05" fill="#5e5e5e"/><path d="M715.3 1150l-14.27 4.64v-9.28z" stroke="#5e5e5e" stroke-width="2" fill="#5e5e5e"/><path d="M730 1106a6 6 0 0 1 6-6h8a6 6 0 0 1 6 6v8a6 6 0 0 1-6 6h-8a6 6 0 0 1-6-6z" stroke="#6db1ff" stroke-width="3" fill="#fff"/><path d="M720 1096a6 6 0 0 1 6-6h148a6 6 0 0 1 6 6v28a6 6 0 0 1-6 6H726a6 6 0 0 1-6-6z" stroke="#000" stroke-opacity="0" stroke-width="3" fill="#fff" fill-opacity="0"/><use xlink:href="#o" transform="matrix(1,0,0,1,725,1095) translate(31.820987654320994 19.65277777777778)"/><path d="M730 1196a6 6 0 0 1 6-6h8a6 6 0 0 1 6 6v8a6 6 0 0 1-6 6h-8a6 6 0 0 1-6-6z" stroke="#6db1ff" stroke-width="3" fill="#fff"/><path d="M720 1186a6 6 0 0 1 6-6h148a6 6 0 0 1 6 6v28a6 6 0 0 1-6 6H726a6 6 0 0 1-6-6z" stroke="#000" stroke-opacity="0" stroke-width="3" fill="#fff" fill-opacity="0"/><use xlink:href="#p" transform="matrix(1,0,0,1,725,1185) translate(31.820987654320994 19.65277777777778)"/><path d="M330 1252.67a6 6 0 0 1 6-6h8a6 6 0 0 1 6 6v8a6 6 0 0 1-6 6h-8a6 6 0 0 1-6-6z" stroke="#6db1ff" stroke-width="3" fill="#fff"/><path d="M320 1242.67a6 6 0 0 1 6-6h148a6 6 0 0 1 6 6v28a6 6 0 0 1-6 6H326a6 6 0 0 1-6-6z" stroke="#000" stroke-opacity="0" stroke-width="3" fill="#fff" fill-opacity="0"/><use xlink:href="#p" transform="matrix(1,0,0,1,325,1241.6666666666667) translate(31.820987654320994 19.65277777777778)"/><path d="M340 1039.33a6 6 0 0 1 6-6h8a6 6 0 0 1 6 6v8a6 6 0 0 1-6 6h-8a6 6 0 0 1-6-6z" stroke="#6db1ff" stroke-width="3" fill="#fff"/><path d="M330 1029.33a6 6 0 0 1 6-6h148a6 6 0 0 1 6 6v28a6 6 0 0 1-6 6H336a6 6 0 0 1-6-6z" stroke="#000" stroke-opacity="0" stroke-width="3" fill="#fff" fill-opacity="0"/><use xlink:href="#o" transform="matrix(1,0,0,1,335,1028.3333333333721) translate(31.820987654320994 19.65277777777778)"/><path d="M340 1016a6 6 0 0 1 6-6h8a6 6 0 0 1 6 6v8a6 6 0 0 1-6 6h-8a6 6 0 0 1-6-6z" stroke="#6db1ff" stroke-width="3" fill="#fff"/><path d="M360 1006a6 6 0 0 1 6-6h68a6 6 0 0 1 6 6v28a6 6 0 0 1-6 6h-68a6 6 0 0 1-6-6z" stroke="#000" stroke-opacity="0" stroke-width="3" fill="#fff" fill-opacity="0"/><g><use xlink:href="#f" transform="matrix(1,0,0,1,365,1005) translate(-1.419753086419746 19.444444444444443)"/></g><path d="M330 1226a6 6 0 0 1 6-6h8a6 6 0 0 1 6 6v8a6 6 0 0 1-6 6h-8a6 6 0 0 1-6-6z" stroke="#6db1ff" stroke-width="3" fill="#fff"/><path d="M350 1216a6 6 0 0 1 6-6h68a6 6 0 0 1 6 6v28a6 6 0 0 1-6 6h-68a6 6 0 0 1-6-6z" stroke="#000" stroke-opacity="0" stroke-width="3" fill="#fff" fill-opacity="0"/><g><use xlink:href="#f" transform="matrix(1,0,0,1,355,1215) translate(-1.419753086419746 19.444444444444443)"/></g><defs><path fill="#333" d="M232-93c-1 65-40 97-104 97C67 4 28-28 28-90v-158h33c8 89-33 224 67 224 102 0 64-133 71-224h33v155" id="q"/><path fill="#333" d="M135-143c-3-34-86-38-87 0 15 53 115 12 119 90S17 21 10-45l28-5c4 36 97 45 98 0-10-56-113-15-118-90-4-57 82-63 122-42 12 7 21 19 24 35" id="r"/><path fill="#333" d="M100-194c63 0 86 42 84 106H49c0 40 14 67 53 68 26 1 43-12 49-29l28 8c-11 28-37 45-77 45C44 4 14-33 15-96c1-61 26-98 85-98zm52 81c6-60-76-77-97-28-3 7-6 17-6 28h103" id="s"/><path fill="#333" d="M114-163C36-179 61-72 57 0H25l-1-190h30c1 12-1 29 2 39 6-27 23-49 58-41v29" id="t"/><g id="a"><use transform="matrix(0.06172839506172839,0,0,0.06172839506172839,0,0)" xlink:href="#q"/><use transform="matrix(0.06172839506172839,0,0,0.06172839506172839,15.987654320987653,0)" xlink:href="#r"/><use transform="matrix(0.06172839506172839,0,0,0.06172839506172839,27.098765432098766,0)" xlink:href="#s"/><use transform="matrix(0.06172839506172839,0,0,0.06172839506172839,39.44444444444444,0)" xlink:href="#t"/></g><path fill="#333" d="M24 0v-261h32V0H24" id="u"/><path fill="#333" d="M96-169c-40 0-48 33-48 73s9 75 48 75c24 0 41-14 43-38l32 2c-6 37-31 61-74 61-59 0-76-41-82-99-10-93 101-131 147-64 4 7 5 14 7 22l-32 3c-4-21-16-35-41-35" id="v"/><path fill="#333" d="M59-47c-2 24 18 29 38 22v24C64 9 27 4 27-40v-127H5v-23h24l9-43h21v43h35v23H59v120" id="w"/><g id="b"><use transform="matrix(0.06172839506172839,0,0,0.06172839506172839,0,0)" xlink:href="#r"/><use transform="matrix(0.06172839506172839,0,0,0.06172839506172839,11.11111111111111,0)" xlink:href="#s"/><use transform="matrix(0.06172839506172839,0,0,0.06172839506172839,23.45679012345679,0)" xlink:href="#u"/><use transform="matrix(0.06172839506172839,0,0,0.06172839506172839,28.333333333333336,0)" xlink:href="#s"/><use transform="matrix(0.06172839506172839,0,0,0.06172839506172839,40.67901234567901,0)" xlink:href="#v"/><use transform="matrix(0.06172839506172839,0,0,0.06172839506172839,51.79012345679013,0)" xlink:href="#w"/><use transform="matrix(0.06172839506172839,0,0,0.06172839506172839,57.96296296296297,0)" xlink:href="#r"/></g><path fill="#333" d="M109-170H84l-4-78h32zm-65 0H19l-4-78h33" id="x"/><path fill="#333" d="M30-248c87 1 191-15 191 75 0 78-77 80-158 76V0H30v-248zm33 125c57 0 124 11 124-50 0-59-68-47-124-48v98" id="y"/><path fill="#333" d="M101-234c-31-9-42 10-38 44h38v23H63V0H32v-167H5v-23h27c-7-52 17-82 69-68v24" id="z"/><g id="c"><use transform="matrix(0.06172839506172839,0,0,0.06172839506172839,0,0)" xlink:href="#x"/><use transform="matrix(0.06172839506172839,0,0,0.06172839506172839,7.8395061728395055,0)" xlink:href="#y"/><use transform="matrix(0.06172839506172839,0,0,0.06172839506172839,22.65432098765432,0)" xlink:href="#t"/><use transform="matrix(0.06172839506172839,0,0,0.06172839506172839,30,0)" xlink:href="#s"/><use transform="matrix(0.06172839506172839,0,0,0.06172839506172839,42.34567901234568,0)" xlink:href="#z"/><use transform="matrix(0.06172839506172839,0,0,0.06172839506172839,48.51851851851852,0)" xlink:href="#s"/><use transform="matrix(0.06172839506172839,0,0,0.06172839506172839,60.864197530864196,0)" xlink:href="#v"/><use transform="matrix(0.06172839506172839,0,0,0.06172839506172839,71.9753086419753,0)" xlink:href="#w"/><use transform="matrix(0.06172839506172839,0,0,0.06172839506172839,78.14814814814814,0)" xlink:href="#x"/></g><path fill="#333" d="M115-194c53 0 69 39 70 98 0 66-23 100-70 100C84 3 66-7 56-30L54 0H23l1-261h32v101c10-23 28-34 59-34zm-8 174c40 0 45-34 45-75 0-40-5-75-45-74-42 0-51 32-51 76 0 43 10 73 51 73" id="A"/><path fill="#333" d="M141-36C126-15 110 5 73 4 37 3 15-17 15-53c-1-64 63-63 125-63 3-35-9-54-41-54-24 1-41 7-42 31l-33-3c5-37 33-52 76-52 45 0 72 20 72 64v82c-1 20 7 32 28 27v20c-31 9-61-2-59-35zM48-53c0 20 12 33 32 33 41-3 63-29 60-74-43 2-92-5-92 41" id="B"/><path fill="#333" d="M85-194c31 0 48 13 60 33l-1-100h32l1 261h-30c-2-10 0-23-3-31C134-8 116 4 85 4 32 4 16-35 15-94c0-66 23-100 70-100zm9 24c-40 0-46 34-46 75 0 40 6 74 45 74 42 0 51-32 51-76 0-42-9-74-50-73" id="C"/><path fill="#333" d="M177-190C167-65 218 103 67 71c-23-6-38-20-44-43l32-5c15 47 100 32 89-28v-30C133-14 115 1 83 1 29 1 15-40 15-95c0-56 16-97 71-98 29-1 48 16 59 35 1-10 0-23 2-32h30zM94-22c36 0 50-32 50-73 0-42-14-75-50-75-39 0-46 34-46 75s6 73 46 73" id="D"/><g id="d"><use transform="matrix(0.06172839506172839,0,0,0.06172839506172839,0,0)" xlink:href="#A"/><use transform="matrix(0.06172839506172839,0,0,0.06172839506172839,12.345679012345679,0)" xlink:href="#B"/><use transform="matrix(0.06172839506172839,0,0,0.06172839506172839,24.691358024691358,0)" xlink:href="#C"/><use transform="matrix(0.06172839506172839,0,0,0.06172839506172839,37.03703703703704,0)" xlink:href="#D"/><use transform="matrix(0.06172839506172839,0,0,0.06172839506172839,49.382716049382715,0)" xlink:href="#s"/></g><path fill="#333" d="M24-231v-30h32v30H24zM24 0v-190h32V0H24" id="E"/><path fill="#333" d="M143 0L79-87 56-68V0H24v-261h32v163l83-92h37l-77 82L181 0h-38" id="F"/><g id="e"><use transform="matrix(0.06172839506172839,0,0,0.06172839506172839,0,0)" xlink:href="#v"/><use transform="matrix(0.06172839506172839,0,0,0.06172839506172839,11.11111111111111,0)" xlink:href="#u"/><use transform="matrix(0.06172839506172839,0,0,0.06172839506172839,15.987654320987653,0)" xlink:href="#E"/><use transform="matrix(0.06172839506172839,0,0,0.06172839506172839,20.864197530864196,0)" xlink:href="#v"/><use transform="matrix(0.06172839506172839,0,0,0.06172839506172839,31.975308641975307,0)" xlink:href="#F"/><use transform="matrix(0.06172839506172839,0,0,0.06172839506172839,43.08641975308642,0)" xlink:href="#y"/><use transform="matrix(0.06172839506172839,0,0,0.06172839506172839,57.90123456790123,0)" xlink:href="#t"/><use transform="matrix(0.06172839506172839,0,0,0.06172839506172839,65.24691358024691,0)" xlink:href="#s"/><use transform="matrix(0.06172839506172839,0,0,0.06172839506172839,77.5925925925926,0)" xlink:href="#z"/><use transform="matrix(0.06172839506172839,0,0,0.06172839506172839,83.76543209876543,0)" xlink:href="#s"/><use transform="matrix(0.06172839506172839,0,0,0.06172839506172839,96.11111111111111,0)" xlink:href="#v"/><use transform="matrix(0.06172839506172839,0,0,0.06172839506172839,107.22222222222223,0)" xlink:href="#w"/></g><path fill="#6db1ff" d="M135-143c-3-34-86-38-87 0 15 53 115 12 119 90S17 21 10-45l28-5c4 36 97 45 98 0-10-56-113-15-118-90-4-57 82-63 122-42 12 7 21 19 24 35" id="G"/><path fill="#6db1ff" d="M59-47c-2 24 18 29 38 22v24C64 9 27 4 27-40v-127H5v-23h24l9-43h21v43h35v23H59v120" id="H"/><path fill="#6db1ff" d="M84 4C-5 8 30-112 23-190h32v120c0 31 7 50 39 49 72-2 45-101 50-169h31l1 190h-30c-1-10 1-25-2-33-11 22-28 36-60 37" id="I"/><path fill="#6db1ff" d="M85-194c31 0 48 13 60 33l-1-100h32l1 261h-30c-2-10 0-23-3-31C134-8 116 4 85 4 32 4 16-35 15-94c0-66 23-100 70-100zm9 24c-40 0-46 34-46 75 0 40 6 74 45 74 42 0 51-32 51-76 0-42-9-74-50-73" id="J"/><path fill="#6db1ff" d="M100-194c63 0 86 42 84 106H49c0 40 14 67 53 68 26 1 43-12 49-29l28 8c-11 28-37 45-77 45C44 4 14-33 15-96c1-61 26-98 85-98zm52 81c6-60-76-77-97-28-3 7-6 17-6 28h103" id="K"/><path fill="#6db1ff" d="M117-194c89-4 53 116 60 194h-32v-121c0-31-8-49-39-48C34-167 62-67 57 0H25l-1-190h30c1 10-1 24 2 32 11-22 29-35 61-36" id="L"/><g id="f"><use transform="matrix(0.06172839506172839,0,0,0.06172839506172839,0,0)" xlink:href="#G"/><use transform="matrix(0.06172839506172839,0,0,0.06172839506172839,11.11111111111111,0)" xlink:href="#H"/><use transform="matrix(0.06172839506172839,0,0,0.06172839506172839,17.28395061728395,0)" xlink:href="#I"/><use transform="matrix(0.06172839506172839,0,0,0.06172839506172839,29.629629629629626,0)" xlink:href="#J"/><use transform="matrix(0.06172839506172839,0,0,0.06172839506172839,41.9753086419753,0)" xlink:href="#K"/><use transform="matrix(0.06172839506172839,0,0,0.06172839506172839,54.32098765432098,0)" xlink:href="#L"/><use transform="matrix(0.06172839506172839,0,0,0.06172839506172839,66.66666666666666,0)" xlink:href="#H"/></g><g id="g"><use transform="matrix(0.06172839506172839,0,0,0.06172839506172839,0,0)" xlink:href="#E"/><use transform="matrix(0.06172839506172839,0,0,0.06172839506172839,4.876543209876543,0)" xlink:href="#z"/></g><path fill="#333" d="M87 75C49 33 22-17 22-94c0-76 28-126 65-167h31c-38 41-64 92-64 168S80 34 118 75H87" id="M"/><path fill="#333" d="M84 4C-5 8 30-112 23-190h32v120c0 31 7 50 39 49 72-2 45-101 50-169h31l1 190h-30c-1-10 1-25-2-33-11 22-28 36-60 37" id="N"/><path fill="#333" d="M117-194c89-4 53 116 60 194h-32v-121c0-31-8-49-39-48C34-167 62-67 57 0H25l-1-190h30c1 10-1 24 2 32 11-22 29-35 61-36" id="O"/><path fill="#333" d="M33 0v-38h34V0H33" id="P"/><path fill="#333" d="M115-194c55 1 70 41 70 98S169 2 115 4C84 4 66-9 55-30l1 105H24l-1-265h31l2 30c10-21 28-34 59-34zm-8 174c40 0 45-34 45-75s-6-73-45-74c-42 0-51 32-51 76 0 43 10 73 51 73" id="Q"/><path fill="#333" d="M18-150v-26h174v26H18zm0 90v-26h174v26H18" id="R"/><path fill="#333" d="M33-261c38 41 65 92 65 168S71 34 33 75H2C39 34 66-17 66-93S39-220 2-261h31" id="S"/><g id="h"><use transform="matrix(0.06172839506172839,0,0,0.06172839506172839,0,0)" xlink:href="#M"/><use transform="matrix(0.06172839506172839,0,0,0.06172839506172839,7.345679012345679,0)" xlink:href="#r"/><use transform="matrix(0.06172839506172839,0,0,0.06172839506172839,18.45679012345679,0)" xlink:href="#w"/><use transform="matrix(0.06172839506172839,0,0,0.06172839506172839,24.62962962962963,0)" xlink:href="#N"/><use transform="matrix(0.06172839506172839,0,0,0.06172839506172839,36.97530864197531,0)" xlink:href="#C"/><use transform="matrix(0.06172839506172839,0,0,0.06172839506172839,49.32098765432099,0)" xlink:href="#s"/><use transform="matrix(0.06172839506172839,0,0,0.06172839506172839,61.666666666666664,0)" xlink:href="#O"/><use transform="matrix(0.06172839506172839,0,0,0.06172839506172839,74.01234567901234,0)" xlink:href="#w"/><use transform="matrix(0.06172839506172839,0,0,0.06172839506172839,80.18518518518518,0)" xlink:href="#P"/><use transform="matrix(0.06172839506172839,0,0,0.06172839506172839,86.35802469135801,0)" xlink:href="#Q"/><use transform="matrix(0.06172839506172839,0,0,0.06172839506172839,98.7037037037037,0)" xlink:href="#t"/><use transform="matrix(0.06172839506172839,0,0,0.06172839506172839,106.04938271604938,0)" xlink:href="#s"/><use transform="matrix(0.06172839506172839,0,0,0.06172839506172839,118.39506172839506,0)" xlink:href="#z"/><use transform="matrix(0.06172839506172839,0,0,0.06172839506172839,124.5679012345679,0)" xlink:href="#s"/><use transform="matrix(0.06172839506172839,0,0,0.06172839506172839,136.91358024691357,0)" xlink:href="#v"/><use transform="matrix(0.06172839506172839,0,0,0.06172839506172839,148.02469135802468,0)" xlink:href="#w"/><use transform="matrix(0.06172839506172839,0,0,0.06172839506172839,154.19753086419752,0)" xlink:href="#R"/><use transform="matrix(0.06172839506172839,0,0,0.06172839506172839,167.16049382716048,0)" xlink:href="#R"/><use transform="matrix(0.06172839506172839,0,0,0.06172839506172839,180.12345679012344,0)" xlink:href="#R"/><use transform="matrix(0.06172839506172839,0,0,0.06172839506172839,193.0864197530864,0)" xlink:href="#w"/><use transform="matrix(0.06172839506172839,0,0,0.06172839506172839,199.25925925925924,0)" xlink:href="#t"/><use transform="matrix(0.06172839506172839,0,0,0.06172839506172839,206.6049382716049,0)" xlink:href="#N"/><use transform="matrix(0.06172839506172839,0,0,0.06172839506172839,218.95061728395058,0)" xlink:href="#s"/><use transform="matrix(0.06172839506172839,0,0,0.06172839506172839,231.29629629629625,0)" xlink:href="#S"/></g><path fill="#333" d="M179-190L93 31C79 59 56 82 12 73V49c39 6 53-20 64-50L1-190h34L92-34l54-156h33" id="T"/><path fill="#333" d="M127-220V0H93v-220H8v-28h204v28h-85" id="U"/><path fill="#333" d="M100-194c62-1 85 37 85 99 1 63-27 99-86 99S16-35 15-95c0-66 28-99 85-99zM99-20c44 1 53-31 53-75 0-43-8-75-51-75s-53 32-53 75 10 74 51 75" id="V"/><path fill="#333" d="M240 0l2-218c-23 76-54 145-80 218h-23L58-218 59 0H30v-248h44l77 211c21-75 51-140 76-211h43V0h-30" id="W"/><g id="i"><use transform="matrix(0.06172839506172839,0,0,0.06172839506172839,0,0)" xlink:href="#w"/><use transform="matrix(0.06172839506172839,0,0,0.06172839506172839,6.172839506172839,0)" xlink:href="#t"/><use transform="matrix(0.06172839506172839,0,0,0.06172839506172839,13.518518518518519,0)" xlink:href="#T"/><use transform="matrix(0.06172839506172839,0,0,0.06172839506172839,24.62962962962963,0)" xlink:href="#U"/><use transform="matrix(0.06172839506172839,0,0,0.06172839506172839,35.67901234567901,0)" xlink:href="#V"/><use transform="matrix(0.06172839506172839,0,0,0.06172839506172839,48.02469135802469,0)" xlink:href="#W"/><use transform="matrix(0.06172839506172839,0,0,0.06172839506172839,66.48148148148148,0)" xlink:href="#B"/><use transform="matrix(0.06172839506172839,0,0,0.06172839506172839,78.82716049382717,0)" xlink:href="#F"/><use transform="matrix(0.06172839506172839,0,0,0.06172839506172839,89.93827160493828,0)" xlink:href="#s"/><use transform="matrix(0.06172839506172839,0,0,0.06172839506172839,102.28395061728396,0)" xlink:href="#y"/><use transform="matrix(0.06172839506172839,0,0,0.06172839506172839,117.09876543209877,0)" xlink:href="#t"/><use transform="matrix(0.06172839506172839,0,0,0.06172839506172839,124.44444444444446,0)" xlink:href="#s"/><use transform="matrix(0.06172839506172839,0,0,0.06172839506172839,136.79012345679013,0)" xlink:href="#z"/><use transform="matrix(0.06172839506172839,0,0,0.06172839506172839,142.96296296296296,0)" xlink:href="#s"/><use transform="matrix(0.06172839506172839,0,0,0.06172839506172839,155.30864197530863,0)" xlink:href="#v"/><use transform="matrix(0.06172839506172839,0,0,0.06172839506172839,166.41975308641975,0)" xlink:href="#w"/></g><g id="j"><use transform="matrix(0.06172839506172839,0,0,0.06172839506172839,0,0)" xlink:href="#M"/><use transform="matrix(0.06172839506172839,0,0,0.06172839506172839,7.345679012345679,0)" xlink:href="#r"/><use transform="matrix(0.06172839506172839,0,0,0.06172839506172839,18.45679012345679,0)" xlink:href="#w"/><use transform="matrix(0.06172839506172839,0,0,0.06172839506172839,24.62962962962963,0)" xlink:href="#N"/><use transform="matrix(0.06172839506172839,0,0,0.06172839506172839,36.97530864197531,0)" xlink:href="#C"/><use transform="matrix(0.06172839506172839,0,0,0.06172839506172839,49.32098765432099,0)" xlink:href="#s"/><use transform="matrix(0.06172839506172839,0,0,0.06172839506172839,61.666666666666664,0)" xlink:href="#O"/><use transform="matrix(0.06172839506172839,0,0,0.06172839506172839,74.01234567901234,0)" xlink:href="#w"/><use transform="matrix(0.06172839506172839,0,0,0.06172839506172839,80.18518518518518,0)" xlink:href="#P"/><use transform="matrix(0.06172839506172839,0,0,0.06172839506172839,86.35802469135801,0)" xlink:href="#Q"/><use transform="matrix(0.06172839506172839,0,0,0.06172839506172839,98.7037037037037,0)" xlink:href="#t"/><use transform="matrix(0.06172839506172839,0,0,0.06172839506172839,106.04938271604938,0)" xlink:href="#s"/><use transform="matrix(0.06172839506172839,0,0,0.06172839506172839,118.39506172839506,0)" xlink:href="#z"/><use transform="matrix(0.06172839506172839,0,0,0.06172839506172839,124.5679012345679,0)" xlink:href="#s"/><use transform="matrix(0.06172839506172839,0,0,0.06172839506172839,136.91358024691357,0)" xlink:href="#v"/><use transform="matrix(0.06172839506172839,0,0,0.06172839506172839,148.02469135802468,0)" xlink:href="#w"/><use transform="matrix(0.06172839506172839,0,0,0.06172839506172839,154.19753086419752,0)" xlink:href="#R"/><use transform="matrix(0.06172839506172839,0,0,0.06172839506172839,167.16049382716048,0)" xlink:href="#R"/><use transform="matrix(0.06172839506172839,0,0,0.06172839506172839,180.12345679012344,0)" xlink:href="#R"/><use transform="matrix(0.06172839506172839,0,0,0.06172839506172839,193.0864197530864,0)" xlink:href="#z"/><use transform="matrix(0.06172839506172839,0,0,0.06172839506172839,199.25925925925924,0)" xlink:href="#B"/><use transform="matrix(0.06172839506172839,0,0,0.06172839506172839,211.6049382716049,0)" xlink:href="#u"/><use transform="matrix(0.06172839506172839,0,0,0.06172839506172839,216.48148148148144,0)" xlink:href="#r"/><use transform="matrix(0.06172839506172839,0,0,0.06172839506172839,227.59259259259255,0)" xlink:href="#s"/><use transform="matrix(0.06172839506172839,0,0,0.06172839506172839,239.93827160493822,0)" xlink:href="#S"/></g><path fill="#333" d="M210-169c-67 3-38 105-44 169h-31v-121c0-29-5-50-35-48C34-165 62-65 56 0H25l-1-190h30c1 10-1 24 2 32 10-44 99-50 107 0 11-21 27-35 58-36 85-2 47 119 55 194h-31v-121c0-29-5-49-35-48" id="X"/><g id="k"><use transform="matrix(0.06172839506172839,0,0,0.06172839506172839,0,0)" xlink:href="#X"/><use transform="matrix(0.06172839506172839,0,0,0.06172839506172839,18.456790123456788,0)" xlink:href="#B"/><use transform="matrix(0.06172839506172839,0,0,0.06172839506172839,30.80246913580247,0)" xlink:href="#F"/><use transform="matrix(0.06172839506172839,0,0,0.06172839506172839,41.91358024691358,0)" xlink:href="#s"/><use transform="matrix(0.06172839506172839,0,0,0.06172839506172839,54.25925925925926,0)" xlink:href="#y"/><use transform="matrix(0.06172839506172839,0,0,0.06172839506172839,69.07407407407408,0)" xlink:href="#t"/><use transform="matrix(0.06172839506172839,0,0,0.06172839506172839,76.41975308641976,0)" xlink:href="#s"/><use transform="matrix(0.06172839506172839,0,0,0.06172839506172839,88.76543209876544,0)" xlink:href="#z"/><use transform="matrix(0.06172839506172839,0,0,0.06172839506172839,94.93827160493828,0)" xlink:href="#s"/><use transform="matrix(0.06172839506172839,0,0,0.06172839506172839,107.28395061728396,0)" xlink:href="#v"/><use transform="matrix(0.06172839506172839,0,0,0.06172839506172839,118.39506172839508,0)" xlink:href="#w"/></g><path fill="#333" d="M233-177c-1 41-23 64-60 70L243 0h-38l-65-103H63V0H30v-248c88 3 205-21 203 71zM63-129c60-2 137 13 137-47 0-61-80-42-137-45v92" id="Y"/><path fill="#333" d="M108 0H70L1-190h34L89-25l56-165h34" id="Z"/><path fill="#333" d="M205 0l-28-72H64L36 0H1l101-248h38L239 0h-34zm-38-99l-47-123c-12 45-31 82-46 123h93" id="aa"/><g id="l"><use transform="matrix(0.06172839506172839,0,0,0.06172839506172839,0,0)" xlink:href="#v"/><use transform="matrix(0.06172839506172839,0,0,0.06172839506172839,11.11111111111111,0)" xlink:href="#u"/><use transform="matrix(0.06172839506172839,0,0,0.06172839506172839,15.987654320987653,0)" xlink:href="#E"/><use transform="matrix(0.06172839506172839,0,0,0.06172839506172839,20.864197530864196,0)" xlink:href="#v"/><use transform="matrix(0.06172839506172839,0,0,0.06172839506172839,31.975308641975307,0)" xlink:href="#F"/><use transform="matrix(0.06172839506172839,0,0,0.06172839506172839,43.08641975308642,0)" xlink:href="#Y"/><use transform="matrix(0.06172839506172839,0,0,0.06172839506172839,59.07407407407407,0)" xlink:href="#s"/><use transform="matrix(0.06172839506172839,0,0,0.06172839506172839,71.41975308641975,0)" xlink:href="#X"/><use transform="matrix(0.06172839506172839,0,0,0.06172839506172839,89.87654320987653,0)" xlink:href="#V"/><use transform="matrix(0.06172839506172839,0,0,0.06172839506172839,102.22222222222221,0)" xlink:href="#Z"/><use transform="matrix(0.06172839506172839,0,0,0.06172839506172839,113.33333333333333,0)" xlink:href="#s"/><use transform="matrix(0.06172839506172839,0,0,0.06172839506172839,125.67901234567901,0)" xlink:href="#aa"/></g><path fill="#333" d="M160-131c35 5 61 23 61 61C221 17 115-2 30 0v-248c76 3 177-17 177 60 0 33-19 50-47 57zm-97-11c50-1 110 9 110-42 0-47-63-36-110-37v79zm0 115c55-2 124 14 124-45 0-56-70-42-124-44v89" id="ab"/><g id="m"><use transform="matrix(0.06172839506172839,0,0,0.06172839506172839,0,0)" xlink:href="#v"/><use transform="matrix(0.06172839506172839,0,0,0.06172839506172839,11.11111111111111,0)" xlink:href="#u"/><use transform="matrix(0.06172839506172839,0,0,0.06172839506172839,15.987654320987653,0)" xlink:href="#E"/><use transform="matrix(0.06172839506172839,0,0,0.06172839506172839,20.864197530864196,0)" xlink:href="#v"/><use transform="matrix(0.06172839506172839,0,0,0.06172839506172839,31.975308641975307,0)" xlink:href="#F"/><use transform="matrix(0.06172839506172839,0,0,0.06172839506172839,43.08641975308642,0)" xlink:href="#Y"/><use transform="matrix(0.06172839506172839,0,0,0.06172839506172839,59.07407407407407,0)" xlink:href="#s"/><use transform="matrix(0.06172839506172839,0,0,0.06172839506172839,71.41975308641975,0)" xlink:href="#X"/><use transform="matrix(0.06172839506172839,0,0,0.06172839506172839,89.87654320987653,0)" xlink:href="#V"/><use transform="matrix(0.06172839506172839,0,0,0.06172839506172839,102.22222222222221,0)" xlink:href="#Z"/><use transform="matrix(0.06172839506172839,0,0,0.06172839506172839,113.33333333333333,0)" xlink:href="#s"/><use transform="matrix(0.06172839506172839,0,0,0.06172839506172839,125.67901234567901,0)" xlink:href="#ab"/></g><g id="n"><use transform="matrix(0.06172839506172839,0,0,0.06172839506172839,0,0)" xlink:href="#t"/><use transform="matrix(0.06172839506172839,0,0,0.06172839506172839,7.345679012345679,0)" xlink:href="#s"/><use transform="matrix(0.06172839506172839,0,0,0.06172839506172839,19.691358024691358,0)" xlink:href="#X"/><use transform="matrix(0.06172839506172839,0,0,0.06172839506172839,38.148148148148145,0)" xlink:href="#V"/><use transform="matrix(0.06172839506172839,0,0,0.06172839506172839,50.49382716049382,0)" xlink:href="#Z"/><use transform="matrix(0.06172839506172839,0,0,0.06172839506172839,61.60493827160494,0)" xlink:href="#s"/><use transform="matrix(0.06172839506172839,0,0,0.06172839506172839,73.95061728395062,0)" xlink:href="#y"/><use transform="matrix(0.06172839506172839,0,0,0.06172839506172839,88.76543209876543,0)" xlink:href="#t"/><use transform="matrix(0.06172839506172839,0,0,0.06172839506172839,96.11111111111111,0)" xlink:href="#s"/><use transform="matrix(0.06172839506172839,0,0,0.06172839506172839,108.4567901234568,0)" xlink:href="#z"/><use transform="matrix(0.06172839506172839,0,0,0.06172839506172839,114.62962962962963,0)" xlink:href="#s"/><use transform="matrix(0.06172839506172839,0,0,0.06172839506172839,126.97530864197533,0)" xlink:href="#v"/><use transform="matrix(0.06172839506172839,0,0,0.06172839506172839,138.08641975308643,0)" xlink:href="#w"/></g><path fill="#6db1ff" d="M100-194c62-1 85 37 85 99 1 63-27 99-86 99S16-35 15-95c0-66 28-99 85-99zM99-20c44 1 53-31 53-75 0-43-8-75-51-75s-53 32-53 75 10 74 51 75" id="ac"/><path fill="#6db1ff" d="M106-169C34-169 62-67 57 0H25v-261h32l-1 103c12-21 28-36 61-36 89 0 53 116 60 194h-32v-121c2-32-8-49-39-48" id="ad"/><path fill="#6db1ff" d="M114-163C36-179 61-72 57 0H25l-1-190h30c1 12-1 29 2 39 6-27 23-49 58-41v29" id="ae"/><path fill="#6db1ff" d="M26 75v-336h71v23H56V52h41v23H26" id="af"/><path fill="#6db1ff" d="M101-251c68 0 85 55 85 127S166 4 100 4C33 4 14-52 14-124c0-73 17-127 87-127zm-1 229c47 0 54-49 54-102s-4-102-53-102c-51 0-55 48-55 102 0 53 5 102 54 102" id="ag"/><path fill="#6db1ff" d="M3 75V52h41v-290H3v-23h71V75H3" id="ah"/><g id="o"><use transform="matrix(0.06172839506172839,0,0,0.06172839506172839,0,0)" xlink:href="#ac"/><use transform="matrix(0.06172839506172839,0,0,0.06172839506172839,12.345679012345679,0)" xlink:href="#H"/><use transform="matrix(0.06172839506172839,0,0,0.06172839506172839,18.51851851851852,0)" xlink:href="#ad"/><use transform="matrix(0.06172839506172839,0,0,0.06172839506172839,30.864197530864196,0)" xlink:href="#K"/><use transform="matrix(0.06172839506172839,0,0,0.06172839506172839,43.20987654320987,0)" xlink:href="#ae"/><use transform="matrix(0.06172839506172839,0,0,0.06172839506172839,50.55555555555555,0)" xlink:href="#G"/><use transform="matrix(0.06172839506172839,0,0,0.06172839506172839,61.66666666666666,0)" xlink:href="#af"/><use transform="matrix(0.06172839506172839,0,0,0.06172839506172839,67.83950617283949,0)" xlink:href="#ag"/><use transform="matrix(0.06172839506172839,0,0,0.06172839506172839,80.18518518518518,0)" xlink:href="#ah"/></g><path fill="#6db1ff" d="M27 0v-27h64v-190l-56 39v-29l58-41h29v221h61V0H27" id="ai"/><g id="p"><use transform="matrix(0.06172839506172839,0,0,0.06172839506172839,0,0)" xlink:href="#ac"/><use transform="matrix(0.06172839506172839,0,0,0.06172839506172839,12.345679012345679,0)" xlink:href="#H"/><use transform="matrix(0.06172839506172839,0,0,0.06172839506172839,18.51851851851852,0)" xlink:href="#ad"/><use transform="matrix(0.06172839506172839,0,0,0.06172839506172839,30.864197530864196,0)" xlink:href="#K"/><use transform="matrix(0.06172839506172839,0,0,0.06172839506172839,43.20987654320987,0)" xlink:href="#ae"/><use transform="matrix(0.06172839506172839,0,0,0.06172839506172839,50.55555555555555,0)" xlink:href="#G"/><use transform="matrix(0.06172839506172839,0,0,0.06172839506172839,61.66666666666666,0)" xlink:href="#af"/><use transform="matrix(0.06172839506172839,0,0,0.06172839506172839,67.83950617283949,0)" xlink:href="#ai"/><use transform="matrix(0.06172839506172839,0,0,0.06172839506172839,80.18518518518518,0)" xlink:href="#ah"/></g></defs></g></svg>